<?xml version="1.0" encoding="UTF-8"?><svg id="Capa_2" xmlns="http://www.w3.org/2000/svg" viewBox="0 0 193.74 152.01"><defs><style>.cls-1{fill:#fff;stroke:#000;stroke-miterlimit:10;}</style></defs><g id="Capa_1-2"><path class="cls-1" d="M170.46,60.47h-46.79c-3.79,0-6.24-2.11-5.47-4.7l14.85-49.96c.77-2.59,4.44-4.7,8.2-4.7h46.4c3.76,0,6.2,2.11,5.45,4.7l-14.43,49.96c-.75,2.59-4.42,4.7-8.22,4.7h0Z"/><path class="cls-1" d="M104.31,40.13h-27.18c-3.76,0-6.16-2.05-5.36-4.58l9.69-30.47c.8-2.53,4.48-4.58,8.22-4.58h26.95c3.73,0,6.12,2.05,5.34,4.58l-9.43,30.47c-.78,2.53-4.47,4.58-8.23,4.58h0Z"/><path class="cls-1" d="M108.39,42.76h-39.16c-2.44,0-4.17-2.39-3.4-4.71l9.69-29.36c1.27-3.85-1.54-7.84-5.53-7.84H21.85c-2.5,0-4.73,1.63-5.53,4.05L.81,51.88c-1.27,3.85,1.54,7.84,5.53,7.84h37.19c2.41,0,4.14,2.34,3.42,4.64l-25.32,81.83c-.81,2.61,1.31,5.31,4.17,5.31h51.72c1.81,0,3.37-1.12,3.89-2.77l31.15-100.66c.81-2.61-1.31-5.31-4.17-5.31h0Z"/></g></svg>
